<?xml version="1.0" encoding="utf-8"?>
<!-- Generator: Adobe Illustrator 21.0.0, SVG Export Plug-In . SVG Version: 6.00 Build 0)  -->
<svg version="1.1" id="Calque_1" xmlns="http://www.w3.org/2000/svg" xmlns:xlink="http://www.w3.org/1999/xlink" x="0px" y="0px"
	 viewBox="0 0 300 209.2" style="enable-background:new 0 0 300 209.2;" xml:space="preserve">
<style type="text/css">
	.st0{enable-background:new    ;}
	.st1{fill:#FFFFFF;}
	.st2{fill:#6BB3B3;}
	.st3{fill:#6B7DB3;}
</style>
<g>
	<g class="st0">
		<path class="st1" d="M46.2,138.6L61,168.5l14.7-29.8h7.8v44H78v-36.2l-15.1,30.7h-3.7L43.8,146v36.7h-5.5v-44H46.2z"/>
		<path class="st1" d="M118.4,161c0-3-0.6-5.2-1.9-6.5c-1.3-1.3-3.1-2-5.5-2c-2.4,0-4.3,0.5-5.8,1.4c-1.5,1-2.2,2.5-2.2,4.5h-6.1
			c0-5.1,2.8-8.3,8.3-9.5c1.7-0.4,3.5-0.6,5.5-0.6c4.2,0,7.4,1,9.7,3.1c2.3,2.1,3.5,5.3,3.5,9.6v21.6h-4.8l-0.6-5.6
			c-2.1,4.2-5.8,6.4-11.1,6.4c-3.6,0-6.5-1-8.6-3c-2.2-2-3.3-4.5-3.3-7.5c0-3,1.2-5.3,3.6-7c2.4-1.7,5.4-2.5,9-2.5
			c3.6,0,7,0.6,10.3,1.8V161z M118.4,168.7c-3.3-0.9-6.2-1.4-8.7-1.4c-2.5,0-4.5,0.4-6,1.3c-1.5,0.9-2.3,2.3-2.3,4.2
			c0,4.2,2.4,6.3,7.1,6.3c2.7,0,5-1,7-2.9C117.4,174.3,118.4,171.8,118.4,168.7z"/>
		<path class="st1" d="M142,154.3c2.2-4,5.5-6,9.8-6c4.4,0,8,1.6,10.9,4.8c2.9,3.2,4.4,7.5,4.4,12.7c0,5.3-1.5,9.5-4.4,12.7
			c-2.9,3.2-6.6,4.8-10.8,4.8c-4.3,0-7.5-1.6-9.5-4.8v20.5h-5.5v-49.9h4.5L142,154.3z M151.6,178.5c2.6,0,4.9-1.1,6.9-3.4
			c2-2.2,3-5.3,3-9.2c0-3.9-0.9-7-2.8-9.3c-1.9-2.3-4.2-3.4-6.9-3.4c-2.7,0-4.9,0.9-6.7,2.6c-1.7,1.7-2.6,4-2.7,6.9v6.4
			c0,2.9,0.9,5.3,2.7,6.9C146.8,177.7,149,178.5,151.6,178.5z"/>
		<path class="st1" d="M195.9,181.7c-4,1.9-7.7,2.3-11,1.2c-2.4-0.7-4.1-2.3-5-4.7c-0.5-1.2-0.8-2.6-0.8-4.2v-20.6h-5.4v-4.2h5.4
			v-9.3h5.5v9.3h10.5v4.2h-10.5v20.5c0,3.4,1.6,5.1,4.8,5.1c1.7,0,3.7-0.4,5.8-1.3L195.9,181.7z"/>
		<path class="st1" d="M216.3,179c4.6,0,7.3-2,7.9-6.1h5.7c-0.5,3.4-2,6-4.4,7.8c-2.5,1.8-5.5,2.8-9.1,2.8c-4.5,0-8.1-1.6-10.9-4.8
			c-2.8-3.2-4.2-7.5-4.2-12.8c0-5.3,1.4-9.6,4.2-12.7c2.8-3.2,6.6-4.8,11.3-4.8c4.7,0,8.2,1.8,10.5,5.5c2.3,3.6,3.1,8.1,2.4,13.3
			h-22.9c0,3.5,0.8,6.3,2.5,8.5C210.9,177.9,213.3,179,216.3,179z M220.4,153.6c-1.1-0.6-2.4-0.8-3.9-0.8c-2.8,0-5.1,1-6.8,2.9
			c-1.7,1.9-2.6,4.4-2.9,7.2h17.9C224.6,158.3,223.2,155.2,220.4,153.6z"/>
		<path class="st1" d="M252.3,179c4.6,0,7.3-2,7.9-6.1h5.7c-0.5,3.4-2,6-4.4,7.8c-2.5,1.8-5.5,2.8-9.1,2.8c-4.5,0-8.1-1.6-10.9-4.8
			c-2.8-3.2-4.2-7.5-4.2-12.8c0-5.3,1.4-9.6,4.2-12.7c2.8-3.2,6.6-4.8,11.3-4.8c4.7,0,8.2,1.8,10.5,5.5c2.3,3.6,3.1,8.1,2.4,13.3
			h-22.9c0,3.5,0.8,6.3,2.5,8.5C247,177.9,249.3,179,252.3,179z M256.4,153.6c-1.1-0.6-2.4-0.8-3.9-0.8c-2.8,0-5.1,1-6.8,2.9
			c-1.7,1.9-2.6,4.4-2.9,7.2h17.9C260.7,158.3,259.3,155.2,256.4,153.6z"/>
	</g>
	<g>
		<path class="st2" d="M145.3,144.2c-0.3,0-0.5,0-0.8-0.1L43.3,116.7c-1.3-0.4-2.3-1.6-2.2-3c0-1.4,1-2.6,2.4-2.8l26.5-5.3
			c1.6-0.3,3.2,0.7,3.5,2.4c0.3,1.6-0.7,3.2-2.4,3.5l-14,2.8l88.1,23.9l95-23.4l-15.9-3c-1.6-0.3-2.7-1.9-2.4-3.5
			c0.3-1.6,1.9-2.7,3.5-2.4l29.4,5.6c1.4,0.3,2.4,1.5,2.4,2.9c0,1.4-0.9,2.7-2.3,3L146,144.1C145.8,144.2,145.5,144.2,145.3,144.2z"
			/>
	</g>
	<g>
		<polygon class="st1" points="242.3,101.6 228.2,105 219.4,107.2 201.7,103.6 223,97.9 		"/>
	</g>
	<g>
		<polygon class="st1" points="158.7,122.2 145,125.6 131.8,122 145,118.5 		"/>
	</g>
	<g>
		<polygon class="st1" points="210.1,109.5 170.1,119.4 155.6,115.7 193.1,105.8 		"/>
	</g>
	<g>
		<polygon class="st1" points="212.2,95.9 190.8,101.3 162.2,95.3 163,95.2 183.7,90.5 202.2,94 		"/>
	</g>
	<g>
		<polygon class="st1" points="174.3,88.7 153.4,93.2 124.1,87.3 145,83.2 164.4,86.9 		"/>
	</g>
	<g>
		<polygon class="st1" points="145.8,95.6 117.1,101.5 88.8,94.4 89.1,94.3 89.1,94.3 108.9,90.4 115.5,89.1 142.7,94.9 		"/>
	</g>
	<g>
		<g>
			<path class="st2" d="M145,83.2l19.5,3.7l9.9,1.9l12.6-2.7l-10.2-2l-31.3-5.9c-0.3-0.1-0.6-0.1-1,0l-33.1,6.6l12.7,2.6L145,83.2z"
				/>
		</g>
		<g>
			<polygon class="st2" points="183.7,90.5 202.2,94 212.2,95.9 223.7,93 214,91.1 196.1,87.7 			"/>
		</g>
		<g>
			<polygon class="st2" points="89.1,94.3 89.1,94.3 108.9,90.4 115.5,89.1 103.2,86.4 96.8,87.7 77.6,91.5 77.4,91.5 88.8,94.4 			
				"/>
		</g>
		<g>
			<path class="st2" d="M254.5,98.8L234.3,95l-11.2,3l19.3,3.6l-14.1,3.5l-8.8,2.2l11.3,2.3l9-2.2l14.9-3.7c1.2-0.3,1.9-1.3,1.9-2.5
				C256.5,100,255.6,99,254.5,98.8z"/>
		</g>
		<g>
			<path class="st2" d="M110.7,121.5l9.9-2.5l-9.7-2.6l-56.3-15.2l24.2-4.8l-11-2.9l-24.6,4.9c-1.1,0.2-2,1.2-2,2.4
				c0,1.2,0.7,2.2,1.9,2.5L101,119L110.7,121.5z"/>
		</g>
		<g>
			<polygon class="st2" points="170.1,119.4 180.4,122 221.2,111.9 210.1,109.5 			"/>
		</g>
		<g>
			<path class="st2" d="M145,125.6l-13.2-3.6l-9.7,2.6l22.2,6c0.2,0.1,0.4,0.1,0.7,0.1c0.2,0,0.4,0,0.6-0.1l23.2-5.7l-10.1-2.7
				L145,125.6z"/>
		</g>
	</g>
	<g>
		<polygon class="st1" points="182.1,103.5 144.5,112.9 115.8,105.7 153.5,97.3 		"/>
	</g>
	<g>
		<g>
			<polygon class="st2" points="145,125.6 107.2,115.4 100.4,117 104.3,119.7 138,128.9 			"/>
		</g>
		<g>
			<polygon class="st2" points="157.7,127.6 236,108.3 226.6,105.5 176.6,117.8 150.5,124.2 			"/>
		</g>
		<g>
			<polygon class="st2" points="239.1,95.9 150.5,79.1 148.3,82.1 174.3,88.7 232,99.6 			"/>
		</g>
		<g>
			<polygon class="st2" points="140.7,84 66.9,98.7 54.7,95.9 128.4,81.4 			"/>
		</g>
	</g>
	<g>
		<g>
			<path class="st3" d="M145.6,31.7c7.3,0,13.1,5.9,13.1,13.1s-5.9,13.1-13.1,13.1s-13.1-5.9-13.1-13.1S138.3,31.7,145.6,31.7
				 M145.6,24.7c-11.1,0-20.1,9-20.1,20.1s9,20.1,20.1,20.1s20.1-9,20.1-20.1S156.7,24.7,145.6,24.7L145.6,24.7z"/>
		</g>
	</g>
	<g>
		<g>
			<path class="st1" d="M145.9,101.4c-5.8-2.5-31.3-15.7-32.9-52.2c0-0.1,0-0.1,0-0.2c-0.1-1.2-0.2-2.3-0.2-3.5
				c0-18.2,14.8-33,33-33s33,14.8,33,33C178.8,86.2,151.7,99.1,145.9,101.4z M145.6,28.2c-9.2,0-16.6,7.5-16.6,16.6
				s7.5,16.6,16.6,16.6c9.1,0,16.6-7.5,16.6-16.6S154.8,28.2,145.6,28.2z"/>
		</g>
		<g>
			<path class="st2" d="M145.8,15.9c16.3,0,29.5,13.3,29.5,29.5c0,36.2-22.1,48.9-29.3,52.1c-2.8-1.4-8-4.4-13.2-9.5
				c-10.1-10-15.6-23.1-16.3-39c0-0.1,0-0.3,0-0.4c-0.1-1-0.2-2.1-0.2-3.1C116.2,29.2,129.5,15.9,145.8,15.9 M145.6,65
				c11.1,0,20.1-9,20.1-20.1s-9-20.1-20.1-20.1c-11.1,0-20.1,9-20.1,20.1S134.5,65,145.6,65 M145.8,8.9c-20.2,0-36.5,16.4-36.5,36.5
				c0,1.3,0.1,2.6,0.2,3.8c1.9,43.4,36.3,55.8,36.3,55.8s36.5-11.1,36.5-59.6C182.3,25.3,166,8.9,145.8,8.9L145.8,8.9z M145.6,58
				c-7.3,0-13.1-5.9-13.1-13.1c0-7.3,5.9-13.1,13.1-13.1c7.3,0,13.1,5.9,13.1,13.1C158.7,52.1,152.9,58,145.6,58L145.6,58z"/>
		</g>
	</g>
	<g>
		<g>
			<polygon class="st1" points="93.9,106.2 96.5,105.7 96.5,105.7 99.9,105 101.5,104.7 101.5,104.6 101.5,104.6 106.6,103.6 
				78.8,96.4 54.7,101.2 82.4,108.7 			"/>
		</g>
		<g>
			<polygon class="st1" points="102.9,107.4 89.1,110.5 110.9,116.4 120.6,119 133.9,115.6 			"/>
		</g>
	</g>
</g>
</svg>
